<?xml version="1.0" encoding="iso-8859-1"?>
<!-- Generator: Adobe Illustrator 19.0.0, SVG Export Plug-In . SVG Version: 6.00 Build 0)  -->
<svg version="1.1" id="Capa_1" xmlns="http://www.w3.org/2000/svg" xmlns:xlink="http://www.w3.org/1999/xlink" x="0px" y="0px"
	 viewBox="0 0 512.001 512.001" style="enable-background:new 0 0 512.001 512.001;" xml:space="preserve">
<circle style="fill:#F9DCA2;" cx="222.759" cy="64.138" r="64.138"/>
<path style="fill:#E5C691;" d="M193.517,64.143c0-29.374,19.753-54.118,46.695-61.72C234.662,0.856,228.815,0,222.764,0
	c-35.425,0-64.143,28.718-64.143,64.143s28.718,64.142,64.143,64.142c6.051,0,11.898-0.856,17.448-2.421
	C213.27,118.261,193.517,93.516,193.517,64.143z"/>
<path style="fill:#D67C05;" d="M277.764,31.128c-5.701,14.518-44.516,22.394-70.216,14.518c-1.548-0.46-3.044-0.847-4.508-1.14
	c-1.213,8.702-4.519,16.735-9.403,23.576c-7.175,10.083-17.76,17.562-30.071,20.762c-3.18-7.604-4.937-15.951-4.937-24.706
	C158.629,28.722,187.341,0,222.768,0c5.983,0,11.778,0.816,17.269,2.353C255.987,6.799,269.428,17.258,277.764,31.128z"/>
<path style="fill:#AD5F02;" d="M193.522,64.138c0,1.328,0.042,2.636,0.115,3.943c-7.175,10.083-17.76,17.562-30.071,20.762
	c-3.18-7.604-4.937-15.951-4.937-24.706C158.629,28.722,187.341,0,222.768,0c5.983,0,11.778,0.816,17.269,2.353
	c0.063,0.031,0.126,0.052,0.178,0.073C213.27,10.02,193.522,34.768,193.522,64.138z"/>
<path style="fill:#F9DCA2;" d="M132.487,326.245L8.594,449.912l37.862,38.728l0.164-0.163l23.197,23.525l4.305-4.305
	c12.874-12.874,12.874-33.746,0-46.62l142.706-142.483l50.471,50.472l-56.609,56.282l37.862,38.728l0.164-0.163l23.197,23.525
	l4.305-4.305c12.836-12.836,12.871-33.624,0.109-46.506l58.879-58.879c10.575-10.575,10.575-27.72,0-38.295l-79.964-79.965
	l-0.468-56.866c-0.174-21.103,16.886-38.304,37.99-38.304h117.757c8.176,0,15.589-3.324,20.952-8.675
	c5.47-5.481,8.808-13.073,8.672-21.446c-0.266-16.294-14.056-29.143-30.353-29.143H255.245c-67.797,0-122.757,54.96-122.757,122.757
	V326.245z"/>
<g>
	<path style="fill:#E5C691;" d="M431.475,132.629c-5.363,5.352-12.774,8.675-20.952,8.675H292.767
		c-21.104,0-38.164,17.201-37.99,38.304l0.158,19.223c1.753-19.335,18.006-34.516,37.832-34.516h117.757
		c8.176,0,15.589-3.323,20.952-8.675c5.47-5.481,8.808-13.073,8.672-21.446c-0.064-3.884-0.903-7.568-2.353-10.932
		C436.296,126.782,434.141,129.958,431.475,132.629z"/>
	<path style="fill:#E5C691;" d="M270.692,463.91l-0.164,0.163l-37.862-38.728l45.633-45.37c6.056-6.022,6.071-15.816,0.031-21.855
		l-39.528-39.528l-10.991,10.975l39.498,39.498l-56.608,56.282l37.862,38.728l0.164-0.163l23.197,23.525l4.305-4.305
		c2.352-2.352,4.27-4.973,5.762-7.761L270.692,463.91z"/>
	<path style="fill:#E5C691;" d="M68.595,488.475l-0.164,0.163l-37.862-38.728l123.893-123.665v-98.437
		c0-67.797,54.96-122.757,122.757-122.757h-21.965c-67.797,0-122.757,54.96-122.757,122.757v98.437L8.604,449.912l37.862,38.728
		l0.164-0.163l23.197,23.525l4.305-4.305c2.352-2.352,4.27-4.973,5.762-7.761L68.595,488.475z"/>
</g>
<g>
	<polygon style="fill:#EAEAE4;" points="305.051,309.302 256.299,358.054 256.299,358.065 216.824,318.59 149.768,385.542 
		122.437,358.221 111.454,347.239 132.488,326.246 132.488,271.176 132.499,271.176 154.464,269.085 255.243,259.483 	"/>
	<path style="fill:#EAEAE4;" d="M276.329,436.627c12.761,12.876,12.729,33.67-0.105,46.504l-4.309,4.309l-23.199-23.534
		l-0.167,0.167l-26.986-27.603l-10.826-11.077l-0.042-0.052l41.933-41.682l5-4.968l0.858,0.868l37.456,37.456L276.329,436.627z"/>
</g>
<path style="fill:#75C92D;" d="M254.772,202.624l0.471,56.859l-100.779,9.602l-21.976,2.092v-43.366
	c0-41.274,20.365-77.788,51.597-100.036c0,0.387-0.031,7.855,2.584,17.154c5.491,19.57,22.666,47.236,76.303,33.806
	C257.784,185.282,254.699,193.597,254.772,202.624z"/>
<path style="fill:#63AA1F;" d="M186.669,144.929c-20.009,21.84-32.205,50.938-32.205,82.882v41.274l-21.976,2.092v-43.366
	c0-41.274,20.365-77.788,51.597-100.036C184.086,128.162,184.054,135.63,186.669,144.929z"/>
<polygon style="fill:#CECECC;" points="154.464,269.085 154.464,326.246 122.437,358.221 111.465,347.249 132.488,326.246 
	132.499,326.246 132.499,271.176 "/>
<path style="fill:#EAEAE4;" d="M74.124,461.071c12.876,12.876,12.876,33.753,0,46.629l-4.309,4.299l-23.189-23.524l-0.167,0.167
	L19.472,461.04L8.625,449.942l-0.031-0.031l47.445-47.361l11.004,11.004l27.31,27.321L74.124,461.071z"/>
<g>
	<polygon style="fill:#CECECC;" points="268.61,389.684 221.563,436.47 210.737,425.393 252.67,383.701 252.628,383.659 
		257.627,378.691 258.485,379.559 	"/>
	<polygon style="fill:#CECECC;" points="67.043,413.553 19.472,461.04 8.625,449.942 56.07,402.581 	"/>
</g>
<path style="fill:#EB9500;" d="M502.872,266.908c-1.422,10.941-5.701,21.589-12.834,30.73c-1.59,2.04-3.326,4.006-5.209,5.889
	c-1.883,1.883-3.849,3.619-5.889,5.209c-9.142,7.133-19.79,11.411-30.73,12.834c-5.209,0.68-10.481,0.711-15.689,0.094
	c-13.66-1.611-26.902-7.656-37.383-18.137c-10.481-10.481-16.526-23.712-18.137-37.362c-0.617-5.219-0.586-10.491,0.094-15.689
	c1.422-10.951,5.701-21.61,12.844-30.751c1.579-2.04,3.316-4.006,5.198-5.889s3.849-3.619,5.889-5.209
	c9.142-7.133,19.79-11.411,30.741-12.834c5.198-0.68,10.47-0.711,15.689-0.094c13.65,1.611,26.892,7.656,37.372,18.137
	c10.481,10.481,16.526,23.722,18.137,37.383C503.584,256.428,503.552,261.7,502.872,266.908z"/>
<path style="fill:#C47605;" d="M431.749,303.529c-24.767-24.767-24.767-64.924,0-89.691c7.674-7.674,16.827-12.966,26.541-15.884
	c-21.636-6.501-46.057-1.209-63.15,15.884c-24.767,24.767-24.767,64.924,0,89.691c17.093,17.093,41.515,22.385,63.15,15.884
	C448.576,316.494,439.423,311.203,431.749,303.529z"/>
<g>
	<path style="fill:#A05802;" d="M502.872,266.908c-18.984-0.042-36.797-7.437-50.238-20.877
		c-13.441-13.441-20.846-31.264-20.867-50.238c5.198-0.68,10.47-0.711,15.689-0.094c0.01,14.821,5.763,28.743,16.275,39.245
		c10.491,10.491,24.413,16.265,39.234,16.275C503.584,256.428,503.552,261.7,502.872,266.908z"/>
	<path style="fill:#A05802;" d="M448.21,321.571c-5.209,0.68-10.481,0.711-15.689,0.094c-0.01-14.832-5.784-28.743-16.275-39.245
		c-10.501-10.501-24.465-16.275-39.245-16.254c-0.617-5.219-0.586-10.491,0.094-15.689c18.963,0.01,36.797,7.405,50.248,20.856
		C440.784,284.774,448.168,302.587,448.21,321.571z"/>
</g>
<path style="fill:#363D3F;" d="M257.55,79.918c-4.332,0-7.845-3.512-7.845-7.845v-8.956c0-4.332,3.512-7.845,7.845-7.845
	c4.332,0,7.845,3.512,7.845,7.845v8.956C265.395,76.406,261.882,79.918,257.55,79.918z"/>
<path style="fill:#A05802;" d="M490.038,297.639c-1.59,2.04-3.326,4.006-5.209,5.889c-1.883,1.883-3.849,3.619-5.889,5.209
	l-89.001-89.011c1.579-2.04,3.316-4.006,5.198-5.889s3.849-3.619,5.889-5.209L490.038,297.639z"/>
<g>
</g>
<g>
</g>
<g>
</g>
<g>
</g>
<g>
</g>
<g>
</g>
<g>
</g>
<g>
</g>
<g>
</g>
<g>
</g>
<g>
</g>
<g>
</g>
<g>
</g>
<g>
</g>
<g>
</g>
</svg>
