<svg height="512" viewBox="0 0 58 58" width="512" xmlns="http://www.w3.org/2000/svg"><g id="023---Cricket" fill="none"><path id="Shape" d="m30 5h6c0-.55 2-1 2-1v-3c0-.55228475-.4477153-1-1-1h-10l1 4c2.23.5 2 1.1 2 1z" fill="#2c3e50"/><path id="Shape" d="m47.81 18.81-3.53-3.53 9.84-9.93c.1893156-.20521118.4558011-.32193289.735-.32193289s.5456844.11672171.735.32193289l2.11 2.16c.2056611.19671832.3177614.47174639.3082166.75618177-.0095448.28443537-.1398304.55132968-.3582166.73381823z" fill="#a56a43"/><path id="Shape" d="m28 4v-4h-9c-.5522847 0-1 .44771525-1 1v3c2.23.5 2 1.1 2 1h6c0-.55 2-1 2-1z" fill="#35495e"/><circle id="Oval" cx="8" cy="19" fill="#ecf0f1" r="8"/><g fill="#547580"><path id="Shape" d="m40 18v-13c0-.55228475-.4477153-1-1-1h-2c-.5522847 0-1 .44771525-1 1v16z"/><path id="Shape" d="m36 33v24c0 .5522847.4477153 1 1 1h2c.5522847 0 1-.4477153 1-1v-28z"/><path id="Shape" d="m30 27v-22c0-.55228475-.4477153-1-1-1h-2c-.5522847 0-1 .44771525-1 1v26z"/><path id="Shape" d="m26 43v14c0 .5522847.4477153 1 1 1h2c.5522847 0 1-.4477153 1-1v-18z"/><path id="Shape" d="m20 37v-32c0-.55228475-.4477153-1-1-1h-2c-.5522847 0-1 .44771525-1 1v35z"/><path id="Shape" d="m16 53v4c0 .5522847.4477153 1 1 1h2c.5522847 0 1-.4477153 1-1v-8z"/></g><path id="Shape" d="m13.6 13.4-11.2 11.2c-.87283415-.8360914-1.54025862-1.8628983-1.95-3 0-.1 0 0 10.09-10.1 1.1511672.3924936 2.1976895 1.042295 3.06 1.9z" fill="#e64c3c"/><path id="Shape" d="m15.55 16.43-10.11 10.11c-1.13042969-.4183169-2.15473766-1.0807027-3-1.94l11.16-11.2c.8692519.8507809 1.5357407 1.886402 1.95 3.03z" fill="#c03a2b"/><path id="Shape" d="m11.75 57.7-6.44-6.38c-.38772359-.3900375-.38772359-1.0199625 0-1.41l36.33-36.24c.3047033-.30789.7729935-.3845927 1.16-.19l2.2 1.1 3.53 3.53 1.1 2.18c.1945927.3870065.11789.8552967-.19 1.16l-36.27 36.25c-.1877666.1893127-.4433625.2957983-.71.2957983s-.5222334-.1064856-.71-.2957983z" fill="#cf976a"/></g></svg>